<?xml version="1.0" encoding="utf-8"?>
<svg width="177px" height="82px" viewBox="0 0 177 82" version="1.1" xmlns:xlink="http://www.w3.org/1999/xlink" xmlns="http://www.w3.org/2000/svg">
  <g id="Group-3">
    <g id="inutz" fill="#DADEE6" transform="translate(0 10)">
      <path d="M33.375 32.3291L33.375 61.2041L28.125 61.2041L28.125 24.4541L33.375 24.4541L49.125 42.8291L49.125 11.3291L54.375 11.3291L54.375 50.7041L49.125 50.7041L33.375 32.3291ZM59.625 24.4541L59.625 37.5791Q59.625 43.0342 63.46 46.8691Q67.2949 50.7041 72.75 50.7041Q78.2051 50.7041 82.04 46.8691Q85.875 43.0342 85.875 37.5791L85.875 11.3291L80.625 11.3291L80.625 37.5791Q80.625 40.8604 78.3281 43.1572Q76.0313 45.4541 72.75 45.4541Q69.4688 45.4541 67.1719 43.1572Q64.875 40.8604 64.875 37.5791L64.875 24.4541L59.625 24.4541ZM22.875 50.7041L17.625 50.7041L17.625 24.4541L22.875 24.4541L22.875 50.7041ZM106.875 61.2041L101.625 61.2041L101.625 29.7041L91.125 29.7041L91.125 24.4541L117.375 24.4541L117.375 29.7041L106.875 29.7041L106.875 61.2041ZM122.625 29.7041L134.191 29.7041L122.625 50.7041L159.375 50.7041L159.375 45.4541L130.746 45.4541L142.313 24.4541L122.625 24.4541L122.625 29.7041Z" />
    </g>
    <g id="Inutz">
      <path d="M33.375 32.3291L33.375 61.2041L28.125 61.2041L28.125 24.4541L33.375 24.4541L49.125 42.8291L49.125 11.3291L54.375 11.3291L54.375 50.7041L49.125 50.7041L33.375 32.3291ZM59.625 24.4541L59.625 37.5791Q59.625 43.0342 63.46 46.8691Q67.2949 50.7041 72.75 50.7041Q78.2051 50.7041 82.04 46.8691Q85.875 43.0342 85.875 37.5791L85.875 11.3291L80.625 11.3291L80.625 37.5791Q80.625 40.8604 78.3281 43.1572Q76.0313 45.4541 72.75 45.4541Q69.4688 45.4541 67.1719 43.1572Q64.875 40.8604 64.875 37.5791L64.875 24.4541L59.625 24.4541ZM22.875 50.7041L17.625 50.7041L17.625 24.4541L22.875 24.4541L22.875 50.7041ZM106.875 61.2041L101.625 61.2041L101.625 29.7041L91.125 29.7041L91.125 24.4541L117.375 24.4541L117.375 29.7041L106.875 29.7041L106.875 61.2041ZM122.625 29.7041L134.191 29.7041L122.625 50.7041L159.375 50.7041L159.375 45.4541L130.746 45.4541L142.313 24.4541L122.625 24.4541L122.625 29.7041Z" />
    </g>
  </g>
</svg>